<svg width="81" height="77" viewBox="0 0 81 77" fill="none" xmlns="http://www.w3.org/2000/svg">
<path d="M33.6348 12L50.0818 12.426C50.4118 12.435 50.7268 12.57 50.9618 12.806L60.9148 22.759C61.7989 23.64 62.3172 24.8228 62.3658 26.07L62.8798 38.94C62.8998 39.443 63.3128 39.835 63.8168 39.834L73.4118 39.784C74.5872 39.7843 75.7146 40.2509 76.5464 41.0814C77.3783 41.9119 77.8466 43.0385 77.8488 44.214V44.474C77.8488 45.638 77.3958 46.733 76.5718 47.556C76.1677 47.962 75.6873 48.2839 75.1581 48.5031C74.6289 48.7223 74.0615 48.8344 73.4888 48.833H57.7188C55.3718 48.833 53.3258 46.788 53.3258 44.44L53.3248 36.035L41.2748 36.026L41.2848 51.196C41.2858 51.622 41.0748 52.022 40.7248 52.263L22.6268 64.673C21.2638 65.522 19.6688 65.706 18.2008 65.21C17.4497 64.9567 16.7673 64.5334 16.2068 63.973C15.6827 63.4476 15.2761 62.8171 15.0138 62.123C14.1388 59.83 15.0878 57.189 17.2698 55.846L29.5728 46.873L29.8248 35.593L16.2688 36.035C16.0919 36.0411 15.9157 36.0108 15.7511 35.9459C15.5865 35.8811 15.4369 35.7831 15.3118 35.658L2.51475 22.86C1.51475 21.861 0.964753 20.48 1.00175 19.068C1.01763 18.3651 1.178 17.673 1.47287 17.0347C1.76774 16.3965 2.19081 15.8257 2.71575 15.358C4.75775 13.518 7.94975 13.67 9.98275 15.703L18.5588 24.279L48.0028 22.644L45.8698 20.511L33.6068 20.858C32.9993 20.8819 32.3934 20.7805 31.8267 20.5603C31.2601 20.3402 30.7447 20.0058 30.3128 19.578L30.2968 19.563C29.8636 19.1316 29.5249 18.6148 29.3021 18.0455C29.0793 17.4762 28.9774 16.8668 29.0028 16.256C29.0828 13.909 31.1628 12.001 33.6348 12V12ZM67.4148 23.774C70.4398 20.749 75.3598 20.749 78.3848 23.774C81.4088 26.799 81.4088 31.718 78.3848 34.744C75.3598 37.768 70.4398 37.768 67.4148 34.744C64.3908 31.718 64.3898 26.799 67.4148 23.774Z" fill="#29BA66"/>
</svg>
